{
  "accessors": [
    {
      "bufferView": 2,
      "componentType": 5126,
      "count": 3,
      "max": [
        0.00571299996227026,
        -0.0,
        -0.4026010036468506
      ],
      "min": [
        -0.00571299996227026,
        -0.0,
        -0.40333598852157593
      ],
      "type": "VEC3"
    },
    {
      "bufferView": 0,
      "componentType": 5125,
      "count": 4,
      "type": "SCALAR"
    },
    {
      "bufferView": 2,
      "byteOffset": 36,
      "componentType": 5126,
      "count": 559,
      "max": [
        0.03512699902057648,
        0.03512699902057648,
        -0.7692130208015442
      ],
      "min": [
        -0.03512699902057648,
        -0.03512699902057648,
        -0.8394669890403748
      ],
      "type": "VEC3"
    },
    {
      "bufferView": 2,
      "byteOffset": 6744,
      "componentType": 5126,
      "count": 559,
      "max": [
        1.0,
        1.0,
        1.0
      ],
      "min": [
        -1.0,
        -1.0,
        -1.0
      ],
      "type": "VEC3"
    },
    {
      "bufferView": 1,
      "componentType": 5126,
      "count": 559,
      "max": [
        1.0,
        1.0
      ],
      "min": [
        0.0,
        0.0
      ],
      "type": "VEC2"
    },
    {
      "bufferView": 0,
      "byteOffset": 16,
      "componentType": 5125,
      "count": 2880,
      "type": "SCALAR"
    },
    {
      "bufferView": 2,
      "byteOffset": 13452,
      "componentType": 5126,
      "count": 123,
      "max": [
        0.08586499840021133,
        0.017142999917268753,
        -0.5984470248222351
      ],
      "min": [
        -0.038100000470876694,
        -0.017142999917268753,
        -0.7601979970932007
      ],
      "type": "VEC3"
    },
    {
      "bufferView": 2,
      "byteOffset": 14928,
      "componentType": 5126,
      "count": 123,
      "max": [
        0.985529363155365,
        0.9994478225708008,
        0.8190439343452454
      ],
      "min": [
        -0.9826062917709351,
        -0.9994478225708008,
        -0.999843418598175
      ],
      "type": "VEC3"
    },
    {
      "bufferView": 1,
      "byteOffset": 4472,
      "componentType": 5126,
      "count": 123,
      "max": [
        0.875,
        1.0
      ],
      "min": [
        0.125,
        0.0
      ],
      "type": "VEC2"
    },
    {
      "bufferView": 0,
      "byteOffset": 11536,
      "componentType": 5125,
      "count": 516,
      "type": "SCALAR"
    },
    {
      "bufferView": 2,
      "byteOffset": 16404,
      "componentType": 5126,
      "count": 559,
      "max": [
        0.12228500097990036,
        0.12228500097990036,
        -0.5452679991722107
      ],
      "min": [
        -0.12228500097990036,
        -0.12228500097990036,
        -0.7898380160331726
      ],
      "type": "VEC3"
    },
    {
      "bufferView": 2,
      "byteOffset": 23112,
      "componentType": 5126,
      "count": 559,
      "max": [
        1.0,
        1.0,
        1.0
      ],
      "min": [
        -1.0,
        -1.0,
        -1.0
      ],
      "type": "VEC3"
    },
    {
      "bufferView": 1,
      "byteOffset": 5456,
      "componentType": 5126,
      "count": 559,
      "max": [
        1.0,
        1.0
      ],
      "min": [
        0.0,
        0.0
      ],
      "type": "VEC2"
    },
    {
      "bufferView": 0,
      "byteOffset": 13600,
      "componentType": 5125,
      "count": 2880,
      "type": "SCALAR"
    },
    {
      "bufferView": 2,
      "byteOffset": 29820,
      "componentType": 5126,
      "count": 4282,
      "max": [
        0.9863690137863159,
        0.9863690137863159,
        0.9975770115852356
      ],
      "min": [
        -0.9863690137863159,
        -0.9863690137863159,
        -0.9975770115852356
      ],
      "type": "VEC3"
    },
    {
      "bufferView": 2,
      "byteOffset": 81204,
      "componentType": 5126,
      "count": 4282,
      "max": [
        0.9991260170936584,
        0.9991260170936584,
        1.0
      ],
      "min": [
        -0.9991260170936584,
        -0.9991260170936584,
        -1.0
      ],
      "type": "VEC3"
    },
    {
      "bufferView": 1,
      "byteOffset": 9928,
      "componentType": 5126,
      "count": 4282,
      "max": [
        1.0,
        1.0
      ],
      "min": [
        0.0,
        0.0
      ],
      "type": "VEC2"
    },
    {
      "bufferView": 0,
      "byteOffset": 25120,
      "componentType": 5125,
      "count": 23808,
      "type": "SCALAR"
    },
    {
      "bufferView": 2,
      "byteOffset": 132588,
      "componentType": 5126,
      "count": 6860,
      "max": [
        0.24283500015735626,
        0.39222100377082825,
        -0.13732999563217163
      ],
      "min": [
        -0.24283500015735626,
        -0.39222100377082825,
        -0.4347369968891144
      ],
      "type": "VEC3"
    },
    {
      "bufferView": 2,
      "byteOffset": 214908,
      "componentType": 5126,
      "count": 6860,
      "max": [
        0.9997171759605408,
        0.9993733167648315,
        0.9999979734420776
      ],
      "min": [
        -0.9997171759605408,
        -0.9993733167648315,
        -1.0
      ],
      "type": "VEC3"
    },
    {
      "bufferView": 1,
      "byteOffset": 44184,
      "componentType": 5126,
      "count": 6860,
      "max": [
        1.0002150535583496,
        0.9943910241127014
      ],
      "min": [
        -0.00019999999494757503,
        0.0
      ],
      "type": "VEC2"
    },
    {
      "bufferView": 0,
      "byteOffset": 120352,
      "componentType": 5125,
      "count": 27570,
      "type": "SCALAR"
    },
    {
      "bufferView": 2,
      "byteOffset": 297228,
      "componentType": 5126,
      "count": 9888,
      "max": [
        0.6663349866867065,
        0.6654009819030762,
        0.944579005241394
      ],
      "min": [
        -0.6663349866867065,
        -0.6654009819030762,
        -0.9513480067253113
      ],
      "type": "VEC3"
    },
    {
      "bufferView": 2,
      "byteOffset": 415884,
      "componentType": 5126,
      "count": 9888,
      "max": [
        1.0,
        1.0,
        1.0
      ],
      "min": [
        -0.9999426603317261,
        -1.0,
        -1.0
      ],
      "type": "VEC3"
    },
    {
      "bufferView": 1,
      "byteOffset": 99064,
      "componentType": 5126,
      "count": 9888,
      "max": [
        1.0003939867019653,
        1.0
      ],
      "min": [
        -0.0003319999959785491,
        0.0
      ],
      "type": "VEC2"
    },
    {
      "bufferView": 0,
      "byteOffset": 230632,
      "componentType": 5125,
      "count": 47328,
      "type": "SCALAR"
    },
    {
      "bufferView": 2,
      "byteOffset": 534540,
      "componentType": 5126,
      "count": 8793,
      "max": [
        1.1933180093765259,
        1.1933180093765259,
        0.030036000534892082
      ],
      "min": [
        -1.1933180093765259,
        -1.3864359855651855,
        -0.5482400059700012
      ],
      "type": "VEC3"
    },
    {
      "bufferView": 2,
      "byteOffset": 640056,
      "componentType": 5126,
      "count": 8793,
      "max": [
        1.0,
        1.0,
        0.9999997615814209
      ],
      "min": [
        -1.0,
        -1.0,
        -1.0
      ],
      "type": "VEC3"
    },
    {
      "bufferView": 1,
      "byteOffset": 178168,
      "componentType": 5126,
      "count": 8793,
      "max": [
        1.0000070333480835,
        1.0002919435501099
      ],
      "min": [
        -7.000000096013537e-06,
        -0.00029200001154094934
      ],
      "type": "VEC2"
    },
    {
      "bufferView": 0,
      "byteOffset": 419944,
      "componentType": 5125,
      "count": 51444,
      "type": "SCALAR"
    }
  ],
  "asset": {
    "extras": {
      "author": "RuyOmega (https://sketchfab.com/sgtgogui)",
      "license": "CC-BY-4.0 (http://creativecommons.org/licenses/by/4.0/)",
      "source": "https://sketchfab.com/3d-models/star-compass-218351bf53c14687aadf6be7e468fe40",
      "title": "Star Compass"
    },
    "generator": "Sketchfab-12.68.0",
    "version": "2.0"
  },
  "bufferViews": [
    {
      "buffer": 0,
      "byteLength": 625720,
      "name": "floatBufferViews",
      "target": 34963
    },
    {
      "buffer": 0,
      "byteLength": 248512,
      "byteOffset": 625720,
      "byteStride": 8,
      "name": "floatBufferViews",
      "target": 34962
    },
    {
      "buffer": 0,
      "byteLength": 745572,
      "byteOffset": 874232,
      "byteStride": 12,
      "name": "floatBufferViews",
      "target": 34962
    }
  ],
  "buffers": [
    {
      "byteLength": 1619804,
      "uri": "scene.bin"
    }
  ],
  "extensionsUsed": [
    "KHR_materials_transmission"
  ],
  "images": [
    {
      "uri": "textures/glass_baseColor.png"
    },
    {
      "uri": "textures/glass_transmission.png"
    }
  ],
  "materials": [
    {
      "doubleSided": true,
      "name": "Material",
      "pbrMetallicRoughness": {
        "baseColorFactor": [
          0.110689,
          0.110689,
          0.110689,
          1.0
        ],
        "roughnessFactor": 0.24434847904468315
      }
    },
    {
      "alphaMode": "BLEND",
      "doubleSided": true,
      "name": "Material.001",
      "pbrMetallicRoughness": {
        "baseColorFactor": [
          0.8,
          0.8,
          0.8,
          0.5732463260553661
        ],
        "metallicFactor": 0.0,
        "roughnessFactor": 0.49971575190461426
      }
    },
    {
      "doubleSided": true,
      "name": "Material.003",
      "pbrMetallicRoughness": {
        "baseColorFactor": [
          0.042932999999999985,
          0.06539000000000006,
          0.7999999999999999,
          1.0
        ],
        "metallicFactor": 0.0,
        "roughnessFactor": 0.7366140006994335
      }
    },
    {
      "alphaMode": "BLEND",
      "doubleSided": true,
      "name": "Material.004",
      "pbrMetallicRoughness": {
        "baseColorFactor": [
          0.8,
          0.8,
          0.8,
          0.3057187068687716
        ],
        "metallicFactor": 0.0,
        "roughnessFactor": 0.0
      }
    },
    {
      "alphaMode": "BLEND",
      "doubleSided": true,
      "extensions": {
        "KHR_materials_transmission": {
          "transmissionFactor": 1.0,
          "transmissionTexture": {
            "index": 1
          }
        }
      },
      "name": "glass",
      "pbrMetallicRoughness": {
        "baseColorTexture": {
          "index": 0
        },
        "metallicFactor": 0.0,
        "roughnessFactor": 0.2261079595546881
      }
    }
  ],
  "meshes": [
    {
      "name": "Object_0",
      "primitives": [
        {
          "attributes": {
            "POSITION": 0
          },
          "indices": 1,
          "material": 0,
          "mode": 1
        }
      ]
    },
    {
      "name": "Object_1",
      "primitives": [
        {
          "attributes": {
            "NORMAL": 3,
            "POSITION": 2,
            "TEXCOORD_0": 4
          },
          "indices": 5,
          "material": 1,
          "mode": 4
        }
      ]
    },
    {
      "name": "Object_2",
      "primitives": [
        {
          "attributes": {
            "NORMAL": 7,
            "POSITION": 6,
            "TEXCOORD_0": 8
          },
          "indices": 9,
          "material": 2,
          "mode": 4
        }
      ]
    },
    {
      "name": "Object_3",
      "primitives": [
        {
          "attributes": {
            "NORMAL": 11,
            "POSITION": 10,
            "TEXCOORD_0": 12
          },
          "indices": 13,
          "material": 3,
          "mode": 4
        }
      ]
    },
    {
      "name": "Object_4",
      "primitives": [
        {
          "attributes": {
            "NORMAL": 15,
            "POSITION": 14,
            "TEXCOORD_0": 16
          },
          "indices": 17,
          "material": 4,
          "mode": 4
        }
      ]
    },
    {
      "name": "Object_5",
      "primitives": [
        {
          "attributes": {
            "NORMAL": 19,
            "POSITION": 18,
            "TEXCOORD_0": 20
          },
          "indices": 21,
          "material": 0,
          "mode": 4
        }
      ]
    },
    {
      "name": "Object_6",
      "primitives": [
        {
          "attributes": {
            "NORMAL": 23,
            "POSITION": 22,
            "TEXCOORD_0": 24
          },
          "indices": 25,
          "material": 0,
          "mode": 4
        }
      ]
    },
    {
      "name": "Object_7",
      "primitives": [
        {
          "attributes": {
            "NORMAL": 27,
            "POSITION": 26,
            "TEXCOORD_0": 28
          },
          "indices": 29,
          "material": 0,
          "mode": 4
        }
      ]
    }
  ],
  "nodes": [
    {
      "children": [
        1
      ],
      "matrix": [
        1.0,
        0.0,
        0.0,
        0.0,
        0.0,
        2.220446049250313e-16,
        -1.0,
        0.0,
        0.0,
        1.0,
        2.220446049250313e-16,
        0.0,
        0.0,
        0.0,
        0.0,
        1.0
      ],
      "name": "Sketchfab_model"
    },
    {
      "children": [
        2,
        3,
        4,
        5,
        6,
        7,
        8,
        9
      ],
      "name": "compassStar.obj.cleaner.materialmerger.gles"
    },
    {
      "mesh": 0,
      "name": "Object_2"
    },
    {
      "mesh": 1,
      "name": "Object_3"
    },
    {
      "mesh": 2,
      "name": "Object_4"
    },
    {
      "mesh": 3,
      "name": "Object_5"
    },
    {
      "mesh": 4,
      "name": "Object_6"
    },
    {
      "mesh": 5,
      "name": "Object_7"
    },
    {
      "mesh": 6,
      "name": "Object_8"
    },
    {
      "mesh": 7,
      "name": "Object_9"
    }
  ],
  "samplers": [
    {
      "magFilter": 9729,
      "minFilter": 9987,
      "wrapS": 10497,
      "wrapT": 10497
    }
  ],
  "scene": 0,
  "scenes": [
    {
      "name": "Sketchfab_Scene",
      "nodes": [
        0
      ]
    }
  ],
  "textures": [
    {
      "sampler": 0,
      "source": 0
    },
    {
      "sampler": 0,
      "source": 1
    }
  ]
}
