<svg xmlns="http://www.w3.org/2000/svg" id="canvas" viewBox="402.668 225.007 598.930 192.186"><path d="M 463.51,315.68 C 462.45 314.94, 461.00 313.81, 458.01 314.12 C 455.01 314.43, 452.91 314.77, 448.55 317.24 C 444.19 319.71, 441.25 321.37, 436.21 326.48 C 431.16 331.59, 428.10 335.37, 423.31 342.80 C 418.53 350.24, 415.68 355.27, 412.27 363.64 C 408.86 372.02, 407.26 377.06, 406.27 384.68 C 405.28 392.29, 405.43 396.27, 407.33 401.70 C 409.23 407.14, 411.28 409.40, 415.77 411.85 C 420.26 414.29, 423.63 414.50, 429.77 413.93 C 435.92 413.36, 439.78 412.12, 446.50 409.00 C 453.22 405.89, 457.09 403.42, 463.39 398.35 C 469.70 393.28, 473.03 389.92, 478.03 383.65 C 483.03 377.39, 485.42 373.61, 488.39 367.04 C 491.36 360.46, 492.39 356.78, 492.90 350.79 C 493.42 344.80, 492.90 341.75, 490.98 337.10 C 489.07 332.44, 487.09 330.37, 483.32 327.51 C 479.54 324.66, 476.66 323.81, 472.13 322.81 C 467.59 321.80, 464.66 321.96, 460.65 322.51 C 456.64 323.06, 454.57 324.10, 452.06 325.54 C 449.56 326.98, 448.72 328.59, 448.13 329.71 C 447.54 330.83, 447.98 331.23, 449.13 331.13 C 450.27 331.04, 451.42 330.17, 453.85 329.23 C 456.27 328.29, 457.73 327.05, 461.26 326.43 C 464.78 325.81, 467.41 325.45, 471.47 326.14 C 475.53 326.84, 478.14 327.52, 481.56 329.92 C 484.98 332.31, 486.76 333.98, 488.57 338.12 C 490.37 342.26, 491.00 344.99, 490.58 350.60 C 490.16 356.21, 489.28 359.81, 486.46 366.17 C 483.63 372.53, 481.32 376.28, 476.45 382.39 C 471.57 388.49, 468.26 391.80, 462.08 396.71 C 455.90 401.62, 452.06 403.97, 445.55 406.94 C 439.04 409.91, 435.28 410.99, 429.54 411.56 C 423.81 412.13, 420.90 411.91, 416.87 409.79 C 412.83 407.68, 411.09 405.96, 409.37 400.99 C 407.64 396.02, 407.31 392.25, 408.25 384.93 C 409.19 377.61, 410.71 372.58, 414.07 364.38 C 417.44 356.18, 420.29 351.17, 425.07 343.95 C 429.86 336.74, 433.00 333.05, 438.01 328.32 C 443.02 323.59, 446.01 322.26, 450.14 320.28 C 454.26 318.31, 455.99 318.95, 458.63 318.46 C 461.27 317.96, 462.35 318.35, 463.33 317.79 C 464.31 317.24, 464.58 316.41, 463.51 315.68" style="stroke: black; fill: black;"/><path d="M 565.50,315.37 C 564.29 314.83, 562.69 314.38, 559.76 314.87 C 556.84 315.37, 554.78 316.15, 550.90 317.83 C 547.02 319.51, 544.20 320.63, 540.37 323.27 C 536.54 325.91, 534.26 327.63, 531.76 331.04 C 529.27 334.46, 528.05 336.61, 527.88 340.34 C 527.72 344.08, 528.49 346.15, 530.92 349.72 C 533.35 353.30, 535.67 354.92, 540.03 358.23 C 544.39 361.53, 547.61 363.14, 552.73 366.24 C 557.85 369.35, 561.13 370.82, 565.62 373.74 C 570.10 376.67, 572.49 378.22, 575.15 380.85 C 577.82 383.48, 578.56 384.65, 578.94 386.90 C 579.31 389.15, 578.98 389.88, 577.04 392.11 C 575.10 394.34, 573.32 395.74, 569.23 398.04 C 565.14 400.34, 562.02 401.70, 556.57 403.60 C 551.13 405.49, 547.49 406.47, 542.00 407.52 C 536.51 408.57, 533.29 408.54, 529.12 408.84 C 524.96 409.15, 523.51 409.03, 521.18 409.06 C 518.85 409.10, 518.30 408.78, 517.49 409.01 C 516.69 409.24, 516.47 409.56, 517.16 410.21 C 517.84 410.86, 518.48 411.83, 520.92 412.24 C 523.37 412.66, 525.05 412.64, 529.39 412.30 C 533.72 411.96, 536.96 411.69, 542.60 410.55 C 548.24 409.40, 551.93 408.48, 557.59 406.58 C 563.25 404.68, 566.44 403.47, 570.89 401.04 C 575.34 398.61, 577.55 397.36, 579.85 394.42 C 582.15 391.48, 582.88 389.54, 582.41 386.36 C 581.93 383.17, 580.51 381.54, 577.48 378.51 C 574.46 375.48, 571.90 374.16, 567.27 371.19 C 562.63 368.22, 559.36 366.77, 554.30 363.67 C 549.24 360.57, 546.08 358.87, 541.96 355.70 C 537.85 352.53, 535.82 350.83, 533.73 347.80 C 531.64 344.77, 531.30 343.44, 531.51 340.56 C 531.73 337.67, 532.59 336.15, 534.82 333.38 C 537.05 330.61, 539.11 328.99, 542.66 326.71 C 546.22 324.43, 548.96 323.41, 552.61 321.98 C 556.26 320.56, 558.29 320.47, 560.93 319.58 C 563.58 318.70, 564.91 318.39, 565.82 317.55 C 566.73 316.71, 566.72 315.90, 565.50 315.37" style="stroke: black; fill: black;"/><path d="M 630.75,229.04 C 630.27 230.40, 630.43 231.65, 630.34 235.78 C 630.25 239.90, 630.51 242.66, 630.30 249.66 C 630.08 256.65, 629.97 261.48, 629.27 270.76 C 628.57 280.03, 627.95 285.85, 626.81 296.04 C 625.67 306.23, 624.84 312.02, 623.58 321.70 C 622.32 331.37, 621.47 336.35, 620.52 344.39 C 619.57 352.44, 619.03 356.16, 618.82 361.90 C 618.62 367.64, 618.29 369.95, 619.50 373.09 C 620.70 376.23, 622.09 377.31, 624.83 377.60 C 627.58 377.89, 629.43 376.88, 633.23 374.56 C 637.03 372.23, 639.22 369.87, 643.83 365.99 C 648.44 362.12, 651.29 359.23, 656.29 355.18 C 661.28 351.13, 664.19 348.64, 668.80 345.75 C 673.42 342.86, 675.88 341.69, 679.38 340.73 C 682.88 339.78, 684.16 340.02, 686.29 340.98 C 688.42 341.95, 688.85 342.88, 690.01 345.56 C 691.18 348.24, 691.47 350.42, 692.11 354.39 C 692.75 358.35, 692.83 361.06, 693.21 365.39 C 693.59 369.72, 693.43 372.23, 694.02 376.04 C 694.60 379.85, 694.64 381.89, 696.13 384.45 C 697.61 387.02, 698.91 388.13, 701.46 388.86 C 704.01 389.59, 705.66 389.50, 708.87 388.09 C 712.09 386.68, 713.75 385.09, 717.52 381.82 C 721.28 378.54, 723.49 376.15, 727.70 371.73 C 731.91 367.30, 734.33 364.31, 738.57 359.69 C 742.81 355.07, 745.32 352.02, 748.90 348.62 C 752.49 345.22, 754.32 343.83, 756.48 342.69 C 758.64 341.55, 758.74 341.56, 759.72 342.92 C 760.70 344.29, 760.84 346.01, 761.38 349.50 C 761.92 353.00, 762.02 355.90, 762.41 360.38 C 762.81 364.86, 762.80 367.81, 763.36 371.89 C 763.91 375.97, 764.20 378.13, 765.18 380.78 C 766.16 383.42, 767.34 384.38, 768.25 385.13 C 769.16 385.88, 769.55 385.61, 769.72 384.54 C 769.89 383.46, 769.53 382.38, 769.11 379.74 C 768.68 377.10, 768.10 375.29, 767.62 371.34 C 767.13 367.39, 767.11 364.52, 766.67 359.99 C 766.24 355.45, 766.39 352.51, 765.44 348.68 C 764.49 344.85, 763.98 342.67, 761.91 340.84 C 759.84 339.00, 758.13 338.39, 755.10 339.50 C 752.07 340.61, 750.48 342.74, 746.75 346.39 C 743.02 350.04, 740.70 353.11, 736.45 357.76 C 732.21 362.40, 729.77 365.34, 725.52 369.59 C 721.26 373.85, 718.89 376.10, 715.19 379.02 C 711.50 381.94, 709.61 382.89, 707.04 384.19 C 704.47 385.49, 703.78 385.85, 702.34 385.52 C 700.91 385.20, 700.71 384.58, 699.88 382.56 C 699.05 380.54, 698.72 378.92, 698.19 375.41 C 697.67 371.90, 697.66 369.36, 697.25 365.02 C 696.83 360.68, 696.86 357.94, 696.11 353.71 C 695.37 349.48, 695.22 347.06, 693.54 343.86 C 691.86 340.65, 690.70 338.94, 687.70 337.71 C 684.70 336.47, 682.63 336.56, 678.54 337.68 C 674.46 338.80, 672.08 340.28, 667.28 343.33 C 662.47 346.38, 659.59 348.91, 654.49 352.95 C 649.40 356.98, 646.43 359.79, 641.80 363.52 C 637.17 367.26, 634.71 369.35, 631.34 371.61 C 627.97 373.87, 626.76 374.70, 624.95 374.80 C 623.13 374.91, 623.03 374.71, 622.27 372.14 C 621.50 369.57, 621.10 367.46, 621.12 361.95 C 621.14 356.44, 621.53 352.60, 622.36 344.60 C 623.18 336.59, 624.01 331.58, 625.24 321.91 C 626.47 312.24, 627.32 306.43, 628.53 296.24 C 629.74 286.04, 630.43 280.22, 631.29 270.93 C 632.16 261.63, 632.42 256.80, 632.85 249.78 C 633.28 242.75, 633.47 239.96, 633.45 235.80 C 633.43 231.65, 633.29 230.35, 632.75 229.00 C 632.21 227.65, 631.23 227.69, 630.75 229.04" style="stroke: black; fill: black;"/><path d="M 779.17,275.29 C 779.70 275.17, 779.69 274.86, 779.15 274.79 C 778.60 274.71, 776.98 274.78, 776.45 274.91 C 775.91 275.03, 775.93 275.34, 776.47 275.41 C 777.01 275.49, 778.63 275.42, 779.17 275.29" style="stroke: black; fill: black;"/><path d="M 815.75,336.43 C 815.26 338.03, 815.56 340.37, 815.64 344.29 C 815.72 348.20, 815.99 350.95, 816.15 356.00 C 816.31 361.05, 816.31 364.67, 816.43 369.54 C 816.54 374.41, 816.16 376.95, 816.73 380.34 C 817.29 383.74, 817.74 385.18, 819.27 386.52 C 820.79 387.86, 822.07 388.17, 824.35 387.02 C 826.64 385.87, 827.67 384.18, 830.69 380.76 C 833.71 377.34, 835.46 374.49, 839.45 369.91 C 843.43 365.34, 845.95 362.20, 850.61 357.88 C 855.27 353.55, 858.09 351.17, 862.74 348.30 C 867.38 345.43, 869.99 344.38, 873.83 343.52 C 877.67 342.67, 879.26 342.94, 881.94 344.03 C 884.61 345.11, 885.49 346.21, 887.19 348.95 C 888.90 351.69, 889.49 353.78, 890.46 357.74 C 891.43 361.69, 891.51 364.35, 892.04 368.72 C 892.57 373.10, 892.69 375.73, 893.12 379.62 C 893.54 383.51, 893.54 385.50, 894.17 388.15 C 894.79 390.81, 895.42 391.60, 896.26 392.92 C 897.10 394.23, 897.74 394.48, 898.36 394.71 C 898.99 394.94, 899.26 394.62, 899.38 394.07 C 899.50 393.51, 899.08 393.31, 898.97 391.95 C 898.86 390.60, 899.17 389.86, 898.83 387.28 C 898.48 384.71, 897.82 382.89, 897.23 379.08 C 896.64 375.27, 896.48 372.68, 895.87 368.23 C 895.25 363.77, 895.27 361.06, 894.15 356.80 C 893.03 352.54, 892.47 350.11, 890.28 346.92 C 888.08 343.73, 886.59 342.13, 883.16 340.86 C 879.74 339.58, 877.53 339.54, 873.15 340.56 C 868.78 341.57, 866.16 342.89, 861.27 345.93 C 856.38 348.98, 853.56 351.44, 848.71 355.80 C 843.86 360.16, 841.22 363.26, 837.02 367.72 C 832.83 372.19, 830.69 374.87, 827.75 378.14 C 824.81 381.42, 823.66 382.73, 822.32 384.11 C 820.98 385.50, 821.32 385.90, 821.04 385.05 C 820.75 384.21, 821.06 383.01, 820.90 379.88 C 820.74 376.75, 820.45 374.21, 820.23 369.41 C 820.01 364.61, 819.99 360.94, 819.81 355.88 C 819.62 350.81, 819.66 348.01, 819.32 344.09 C 818.97 340.16, 818.78 337.79, 818.06 336.26 C 817.35 334.73, 816.24 334.82, 815.75 336.43" style="stroke: black; fill: black;"/><path d="M 968.91,350.26 C 968.07 349.43, 967.00 348.07, 964.31 348.11 C 961.62 348.14, 959.43 348.58, 955.47 350.45 C 951.50 352.33, 948.76 353.81, 944.46 357.47 C 940.17 361.14, 937.47 363.94, 933.99 368.78 C 930.50 373.61, 928.54 376.70, 927.03 381.65 C 925.52 386.61, 925.15 389.54, 926.42 393.55 C 927.69 397.55, 929.46 399.57, 933.37 401.68 C 937.28 403.79, 940.34 404.22, 945.95 404.11 C 951.56 404.01, 955.21 403.20, 961.43 401.15 C 967.64 399.09, 971.36 397.37, 977.04 393.84 C 982.71 390.32, 985.76 387.99, 989.80 383.52 C 993.84 379.06, 995.62 376.32, 997.24 371.53 C 998.86 366.73, 998.97 363.95, 997.89 359.54 C 996.81 355.14, 995.10 352.86, 991.84 349.50 C 988.58 346.14, 985.80 344.65, 981.60 342.73 C 977.40 340.81, 973.14 339.96, 970.84 339.89 C 968.54 339.83, 968.22 341.23, 970.09 342.41 C 971.95 343.59, 976.27 343.92, 980.16 345.79 C 984.05 347.67, 986.57 348.89, 989.54 351.79 C 992.51 354.69, 993.98 356.51, 995.00 360.29 C 996.02 364.06, 996.05 366.35, 994.63 370.65 C 993.21 374.95, 991.67 377.59, 987.88 381.79 C 984.09 385.99, 981.15 388.31, 975.69 391.67 C 970.23 395.03, 966.55 396.67, 960.59 398.58 C 954.63 400.48, 951.06 401.12, 945.90 401.20 C 940.74 401.28, 938.11 400.70, 934.80 398.99 C 931.49 397.28, 930.32 395.93, 929.35 392.65 C 928.37 389.36, 928.50 386.97, 929.93 382.56 C 931.36 378.16, 933.13 375.09, 936.48 370.61 C 939.83 366.13, 942.53 363.42, 946.67 360.16 C 950.81 356.91, 953.58 355.84, 957.19 354.33 C 960.81 352.83, 962.47 353.05, 964.73 352.63 C 966.98 352.22, 967.65 352.73, 968.48 352.25 C 969.32 351.78, 969.74 351.09, 968.91 350.26" style="stroke: black; fill: black;"/></svg>