<svg xmlns="http://www.w3.org/2000/svg" id="canvas" viewBox="403.882 276.098 576.192 190.628"><path d="M 467.10,362.81 C 466.04 362.02, 464.60 360.92, 461.67 361.25 C 458.74 361.58, 456.76 361.97, 452.44 364.45 C 448.11 366.93, 445.18 368.56, 440.05 373.64 C 434.92 378.72, 431.78 382.41, 426.78 389.83 C 421.78 397.26, 418.81 402.36, 415.05 410.79 C 411.29 419.22, 409.41 424.22, 407.99 431.99 C 406.57 439.75, 406.47 443.87, 407.95 449.63 C 409.43 455.38, 411.25 457.96, 415.41 460.76 C 419.56 463.56, 422.82 463.97, 428.72 463.62 C 434.62 463.27, 438.30 462.06, 444.91 459.02 C 451.51 455.98, 455.37 453.53, 461.75 448.42 C 468.14 443.32, 471.67 439.87, 476.84 433.49 C 482.02 427.11, 484.49 423.19, 487.62 416.53 C 490.76 409.86, 491.87 406.20, 492.53 400.17 C 493.19 394.14, 492.77 391.07, 490.91 386.36 C 489.04 381.66, 487.00 379.50, 483.20 376.65 C 479.41 373.80, 476.49 373.02, 471.92 372.13 C 467.35 371.24, 464.30 371.45, 460.37 372.19 C 456.45 372.93, 453.73 374.62, 452.29 375.83 C 450.84 377.03, 451.39 378.14, 453.13 378.21 C 454.88 378.29, 457.38 376.66, 461.01 376.20 C 464.63 375.75, 467.20 375.30, 471.24 375.94 C 475.29 376.58, 477.85 377.08, 481.24 379.39 C 484.62 381.70, 486.43 383.38, 488.17 387.48 C 489.91 391.58, 490.47 394.30, 489.93 399.90 C 489.39 405.51, 488.44 409.09, 485.47 415.52 C 482.49 421.95, 480.10 425.83, 475.06 432.04 C 470.02 438.24, 466.51 441.62, 460.26 446.55 C 454.02 451.47, 450.17 453.78, 443.82 456.64 C 437.48 459.51, 433.93 460.50, 428.54 460.88 C 423.15 461.26, 420.52 460.92, 416.87 458.55 C 413.23 456.17, 411.64 454.25, 410.30 449.02 C 408.97 443.79, 408.84 439.85, 410.19 432.38 C 411.54 424.91, 413.33 419.92, 417.04 411.68 C 420.75 403.43, 423.73 398.36, 428.73 391.17 C 433.74 383.99, 436.96 380.41, 442.06 375.76 C 447.17 371.11, 450.18 369.85, 454.26 367.93 C 458.34 366.02, 459.92 366.74, 462.46 366.20 C 465.00 365.65, 466.04 365.89, 466.96 365.21 C 467.89 364.53, 468.16 363.60, 467.10 362.81" style="stroke: white; fill: white;"/><path d="M 562.94,361.73 C 561.63 361.21, 559.92 360.88, 556.90 361.56 C 553.88 362.25, 551.80 363.23, 547.84 365.16 C 543.88 367.08, 540.98 368.33, 537.11 371.18 C 533.23 374.03, 530.91 375.83, 528.49 379.40 C 526.06 382.97, 524.91 385.21, 524.97 389.01 C 525.03 392.80, 526.04 394.85, 528.79 398.37 C 531.54 401.89, 534.01 403.41, 538.72 406.62 C 543.44 409.83, 546.85 411.40, 552.35 414.43 C 557.85 417.45, 561.28 418.85, 566.21 421.75 C 571.15 424.64, 573.87 426.21, 577.02 428.89 C 580.18 431.58, 581.22 432.92, 581.99 435.18 C 582.76 437.45, 582.67 437.98, 580.88 440.24 C 579.10 442.50, 577.33 444.03, 573.07 446.46 C 568.80 448.89, 565.47 450.33, 559.56 452.38 C 553.65 454.44, 549.65 455.50, 543.50 456.72 C 537.34 457.95, 533.59 458.68, 528.79 458.52 C 523.99 458.36, 521.50 456.03, 519.51 455.93 C 517.52 455.83, 517.01 456.90, 518.84 458.02 C 520.67 459.14, 523.58 461.16, 528.63 461.52 C 533.68 461.88, 537.70 461.03, 544.10 459.83 C 550.50 458.63, 554.47 457.55, 560.62 455.52 C 566.78 453.48, 570.18 452.24, 574.86 449.65 C 579.53 447.05, 581.86 445.67, 584.02 442.54 C 586.18 439.42, 586.61 437.32, 585.67 434.05 C 584.73 430.78, 582.88 429.21, 579.32 426.19 C 575.76 423.17, 572.92 421.86, 567.85 418.93 C 562.77 416.01, 559.36 414.61, 553.93 411.57 C 548.51 408.54, 545.15 406.85, 540.71 403.75 C 536.28 400.64, 534.10 398.99, 531.76 396.04 C 529.41 393.09, 528.96 391.82, 529.00 388.99 C 529.05 386.16, 529.81 384.71, 531.96 381.89 C 534.11 379.07, 536.16 377.35, 539.75 374.90 C 543.34 372.44, 546.17 371.27, 549.91 369.61 C 553.65 367.95, 555.75 367.69, 558.45 366.60 C 561.16 365.52, 562.54 365.16, 563.44 364.19 C 564.33 363.21, 564.25 362.26, 562.94 361.73" style="stroke: white; fill: white;"/><path d="M 625.66,280.10 C 625.16 281.36, 625.37 282.32, 625.33 286.24 C 625.30 290.15, 625.60 292.80, 625.50 299.67 C 625.41 306.55, 625.40 311.37, 624.84 320.61 C 624.28 329.86, 623.75 335.69, 622.70 345.90 C 621.65 356.11, 620.78 361.97, 619.59 371.66 C 618.41 381.35, 617.66 386.35, 616.76 394.36 C 615.87 402.37, 615.27 406.04, 615.13 411.72 C 614.99 417.40, 614.63 419.78, 616.05 422.76 C 617.46 425.73, 619.20 426.73, 622.22 426.61 C 625.25 426.48, 627.11 424.97, 631.19 422.14 C 635.26 419.30, 637.71 416.65, 642.58 412.44 C 647.45 408.22, 650.44 405.14, 655.53 401.06 C 660.63 396.98, 663.55 394.57, 668.05 392.04 C 672.54 389.51, 674.82 388.74, 677.99 388.40 C 681.15 388.05, 682.01 388.58, 683.87 390.30 C 685.73 392.02, 686.23 393.53, 687.29 396.97 C 688.35 400.42, 688.57 403.06, 689.17 407.52 C 689.77 411.97, 689.83 414.83, 690.28 419.26 C 690.73 423.68, 690.49 426.14, 691.40 429.63 C 692.30 433.12, 692.99 435.01, 694.82 436.71 C 696.65 438.41, 699.24 438.23, 700.53 438.13 C 701.81 438.03, 701.82 437.00, 701.26 436.20 C 700.71 435.39, 698.80 435.63, 697.76 434.10 C 696.71 432.57, 696.67 431.61, 696.06 428.55 C 695.44 425.48, 695.19 423.10, 694.68 418.77 C 694.16 414.45, 694.15 411.55, 693.48 406.92 C 692.81 402.29, 692.74 399.55, 691.32 395.62 C 689.91 391.69, 689.15 389.43, 686.41 387.27 C 683.67 385.12, 681.61 384.47, 677.62 384.87 C 673.63 385.26, 671.27 386.49, 666.46 389.24 C 661.65 391.99, 658.80 394.49, 653.58 398.60 C 648.35 402.71, 645.26 405.72, 640.35 409.81 C 635.43 413.90, 632.71 416.38, 629.01 419.06 C 625.30 421.75, 623.80 422.75, 621.82 423.24 C 619.83 423.72, 619.90 423.77, 619.09 421.47 C 618.27 419.17, 617.80 417.12, 617.75 411.74 C 617.71 406.36, 618.11 402.55, 618.86 394.58 C 619.60 386.61, 620.32 381.59, 621.49 371.89 C 622.65 362.20, 623.53 356.33, 624.66 346.11 C 625.80 335.89, 626.40 330.05, 627.17 320.78 C 627.93 311.51, 628.10 306.69, 628.47 299.77 C 628.84 292.85, 629.12 290.16, 628.99 286.20 C 628.87 282.23, 628.53 281.18, 627.86 279.96 C 627.20 278.74, 626.17 278.84, 625.66 280.10" style="stroke: white; fill: white;"/><path d="M 750.79,381.91 C 750.02 383.09, 749.72 384.58, 749.38 387.94 C 749.04 391.29, 749.32 393.82, 749.11 398.67 C 748.90 403.52, 748.66 406.92, 748.34 412.17 C 748.03 417.41, 747.79 420.50, 747.52 424.90 C 747.25 429.30, 746.87 431.32, 747.01 434.17 C 747.14 437.02, 747.70 437.82, 748.21 439.14 C 748.72 440.46, 749.09 440.49, 749.55 440.77 C 750.01 441.05, 750.20 440.89, 750.49 440.53 C 750.78 440.16, 750.67 440.21, 751.00 438.94 C 751.33 437.67, 751.98 436.95, 752.12 434.18 C 752.26 431.40, 751.65 429.41, 751.72 425.06 C 751.78 420.71, 752.09 417.66, 752.44 412.43 C 752.79 407.20, 753.14 403.77, 753.47 398.91 C 753.80 394.05, 754.13 391.52, 754.09 388.14 C 754.04 384.76, 753.89 383.27, 753.23 382.02 C 752.57 380.78, 751.56 380.73, 750.79 381.91" style="stroke: white; fill: white;"/><path d="M 764.44,317.62 C 765.28 317.25, 765.60 316.68, 765.13 316.74 C 764.67 316.81, 762.84 317.55, 762.12 317.94 C 761.40 318.33, 761.14 318.98, 761.53 318.68 C 761.92 318.39, 763.82 316.95, 764.05 316.48 C 764.28 316.01, 763.53 315.99, 762.69 316.34 C 761.85 316.68, 760.20 317.75, 759.85 318.20 C 759.49 318.66, 759.99 318.75, 760.91 318.63 C 761.83 318.51, 763.60 318.00, 764.44 317.62" style="stroke: white; fill: white;"/><path d="M 797.69,381.74 C 797.11 383.21, 797.35 385.27, 797.38 388.84 C 797.42 392.40, 797.73 394.90, 797.85 399.57 C 797.98 404.24, 798.03 407.58, 798.01 412.19 C 798.00 416.81, 797.47 419.24, 797.78 422.64 C 798.09 426.05, 798.29 427.65, 799.56 429.22 C 800.83 430.78, 802.07 431.34, 804.15 430.48 C 806.23 429.61, 807.24 428.15, 809.95 424.89 C 812.66 421.63, 814.03 418.78, 817.71 414.19 C 821.40 409.59, 823.82 406.41, 828.38 401.91 C 832.93 397.40, 835.80 394.79, 840.49 391.64 C 845.18 388.50, 847.85 387.26, 851.82 386.19 C 855.79 385.12, 857.58 385.34, 860.34 386.28 C 863.10 387.21, 863.94 388.19, 865.62 390.87 C 867.30 393.55, 867.84 395.61, 868.73 399.69 C 869.62 403.76, 869.72 406.54, 870.08 411.23 C 870.43 415.92, 870.26 418.76, 870.51 423.14 C 870.76 427.52, 870.79 429.90, 871.33 433.14 C 871.88 436.38, 872.40 437.58, 873.26 439.33 C 874.12 441.09, 874.90 441.52, 875.64 441.91 C 876.38 442.30, 876.75 442.00, 876.97 441.29 C 877.19 440.57, 876.89 440.12, 876.75 438.35 C 876.61 436.57, 876.67 435.52, 876.28 432.41 C 875.89 429.30, 875.21 427.11, 874.79 422.81 C 874.37 418.51, 874.59 415.71, 874.18 410.90 C 873.78 406.09, 873.81 403.23, 872.77 398.77 C 871.73 394.31, 871.25 391.83, 868.99 388.62 C 866.74 385.41, 865.12 383.85, 861.50 382.71 C 857.89 381.57, 855.48 381.67, 850.92 382.93 C 846.37 384.20, 843.70 385.71, 838.74 389.04 C 833.78 392.37, 830.93 395.05, 826.14 399.59 C 821.34 404.12, 818.74 407.23, 814.77 411.70 C 810.80 416.17, 808.83 418.74, 806.30 421.93 C 803.77 425.12, 802.96 426.42, 802.12 427.66 C 801.28 428.89, 801.97 429.15, 802.11 428.11 C 802.26 427.07, 802.75 425.67, 802.84 422.47 C 802.94 419.28, 802.67 416.75, 802.57 412.15 C 802.46 407.54, 802.44 404.17, 802.31 399.45 C 802.19 394.74, 802.33 392.15, 801.93 388.56 C 801.52 384.97, 801.14 382.86, 800.29 381.50 C 799.44 380.14, 798.27 380.28, 797.69 381.74" style="stroke: white; fill: white;"/><path d="M 950.22,393.68 C 949.64 392.66, 948.83 391.00, 946.36 390.68 C 943.90 390.36, 941.80 390.45, 937.89 392.06 C 933.99 393.66, 931.29 395.06, 926.82 398.69 C 922.35 402.32, 919.48 405.19, 915.54 410.19 C 911.60 415.19, 909.27 418.48, 907.13 423.70 C 905.00 428.92, 904.16 431.96, 904.85 436.31 C 905.54 440.66, 907.03 443.00, 910.58 445.45 C 914.13 447.90, 917.13 448.49, 922.59 448.55 C 928.04 448.62, 931.63 447.83, 937.84 445.77 C 944.06 443.70, 947.83 441.94, 953.67 438.24 C 959.51 434.53, 962.73 432.02, 967.05 427.26 C 971.38 422.51, 973.38 419.57, 975.29 414.45 C 977.21 409.34, 977.46 406.39, 976.61 401.69 C 975.77 396.98, 974.15 394.52, 971.09 390.92 C 968.02 387.33, 965.35 385.81, 961.29 383.70 C 957.24 381.59, 954.41 381.01, 950.79 380.36 C 947.17 379.72, 944.77 380.00, 943.20 380.48 C 941.64 380.96, 941.62 381.95, 942.95 382.76 C 944.28 383.56, 946.55 383.58, 949.86 384.50 C 953.16 385.42, 955.76 385.60, 959.47 387.36 C 963.18 389.12, 965.62 390.32, 968.41 393.31 C 971.20 396.29, 972.61 398.27, 973.43 402.29 C 974.25 406.32, 974.19 408.80, 972.50 413.42 C 970.80 418.03, 969.03 420.88, 964.96 425.36 C 960.89 429.84, 957.76 432.32, 952.15 435.82 C 946.54 439.32, 942.80 440.96, 936.89 442.85 C 930.99 444.73, 927.50 445.29, 922.62 445.25 C 917.74 445.21, 915.37 444.52, 912.48 442.63 C 909.59 440.75, 908.63 439.35, 908.17 435.82 C 907.71 432.29, 908.19 429.68, 910.19 424.98 C 912.20 420.28, 914.39 416.96, 918.20 412.32 C 922.00 407.69, 924.91 404.92, 929.21 401.79 C 933.51 398.67, 936.30 397.94, 939.70 396.69 C 943.10 395.44, 944.30 395.75, 946.21 395.56 C 948.12 395.38, 948.45 396.14, 949.25 395.77 C 950.06 395.39, 950.80 394.69, 950.22 393.68" style="stroke: white; fill: white;"/></svg>